<svg width="266" height="266" viewBox="0 0 266 266" fill="none" xmlns="http://www.w3.org/2000/svg">
<g clip-path="url(#clip0_48_28)">
<path d="M253.032 12.9675C244.715 4.66745 233.445 0.00417305 221.694 0H44.3056C32.555 0 21.2857 4.6679 12.9768 12.9768C4.6679 21.2857 0 32.555 0 44.3056V221.694C0 233.445 4.6679 244.714 12.9768 253.023C21.2857 261.332 32.555 266 44.3056 266H221.694C233.445 266 244.714 261.332 253.023 253.023C261.332 244.714 266 233.445 266 221.694V44.3056C265.996 32.555 261.333 21.2854 253.032 12.9675ZM248.294 221.694C248.272 228.742 245.463 235.495 240.479 240.479C235.495 245.463 228.742 248.272 221.694 248.294H44.3056C37.2576 248.272 30.5045 245.463 25.5208 240.479C20.5371 235.495 17.7275 228.742 17.7056 221.694V44.3056C17.7275 37.2576 20.5371 30.5045 25.5208 25.5208C30.5045 20.5371 37.2576 17.7275 44.3056 17.7056H221.694C228.742 17.7275 235.495 20.5371 240.479 25.5208C245.463 30.5045 248.272 37.2576 248.294 44.3056V221.694Z" fill="white"/>
<path d="M214.607 181.769H206.423V92.3845C206.423 85.9173 203.844 79.715 199.255 75.1421C194.665 70.5691 188.44 68 181.949 68H171.241C167.904 68.0051 164.604 68.6879 161.541 70.0067C158.477 71.3254 155.716 73.2524 153.426 75.67C151.135 78.0876 149.364 80.945 148.219 84.0678C147.074 87.1905 146.58 90.513 146.767 93.8323C144.141 92.8898 141.374 92.4002 138.583 92.3845H127.57C124.23 92.3787 120.924 93.054 117.856 94.369C114.787 95.6839 112.022 97.6107 109.729 100.031C107.436 102.451 105.665 105.312 104.524 108.44C103.383 111.568 102.897 114.895 103.095 118.217C100.423 117.251 97.6014 116.761 94.7589 116.769H84.0513C77.5603 116.769 71.3352 119.338 66.7454 123.911C62.1555 128.484 59.577 134.686 59.577 141.154V181.769H51.3934C49.3693 181.965 47.4908 182.904 46.124 184.404C44.7572 185.905 44 187.858 44 189.885C44 191.911 44.7572 193.864 46.124 195.365C47.4908 196.865 49.3693 197.804 51.3934 198H214.607C216.631 197.804 218.509 196.865 219.876 195.365C221.243 193.864 222 191.911 222 189.885C222 187.858 221.243 185.905 219.876 184.404C218.509 182.904 216.631 181.965 214.607 181.769V181.769ZM75.8677 141.154C75.8677 138.991 76.7299 136.917 78.2647 135.388C79.7994 133.859 81.8809 133 84.0513 133H94.7589C96.9293 133 99.0108 133.859 100.546 135.388C102.08 136.917 102.942 138.991 102.942 141.154V181.769H75.8677V141.154ZM119.386 141.154V116.769C119.42 114.611 120.266 112.544 121.757 110.978C123.307 109.459 125.396 108.61 127.57 108.615H138.43C140.604 108.61 142.693 109.459 144.243 110.978C145.734 112.544 146.58 114.611 146.614 116.769V181.769H119.386V141.154ZM162.905 181.769V92.3845C162.904 91.3008 163.121 90.228 163.542 89.2287C163.963 88.2294 164.579 87.3237 165.355 86.5645C166.132 85.8054 167.052 85.208 168.062 84.8073C169.073 84.4066 170.154 84.2107 171.241 84.2309H181.949C184.119 84.2309 186.201 85.09 187.735 86.6191C189.27 88.1482 190.132 90.2221 190.132 92.3845V181.769H162.905Z" fill="#32D5EB"/>
</g>
<defs>
<clipPath id="clip0_48_28">
<rect width="266" height="266" fill="white"/>
</clipPath>
</defs>
</svg>
