<svg width="267" height="267" viewBox="0 0 267 267" fill="none" xmlns="http://www.w3.org/2000/svg">
<g clip-path="url(#clip0_28_374)">
<path d="M255.169 53.1011C251.566 50.5867 247.396 49.0042 243.032 48.495C238.668 47.9859 234.246 48.566 230.161 50.1835C209.223 58.6539 186.89 63.1488 164.305 63.438H106.702C99.6344 63.4599 92.8621 66.2775 87.8642 71.2754C82.8664 76.2732 80.0488 83.0455 80.0269 90.1136V128.043C80.0269 135.118 82.8373 141.903 87.84 146.906C92.8426 151.908 99.6277 154.719 106.702 154.719H115.539L121.541 175.642C123.698 183.047 128.192 189.557 134.351 194.199C140.511 198.841 148.006 201.367 155.719 201.401C158.698 201.577 161.674 201.024 164.391 199.789C167.107 198.554 169.482 196.675 171.308 194.315C172.963 192.118 174.088 189.567 174.594 186.863C175.1 184.159 174.974 181.374 174.225 178.727L167.39 154.802C187.354 155.062 207.113 158.873 225.742 166.056C230.302 168.183 235.224 169.428 240.247 169.724C243.75 169.724 247.219 169.034 250.456 167.693C253.692 166.353 256.633 164.388 259.11 161.911C261.587 159.433 263.552 156.493 264.892 153.256C266.233 150.02 266.923 146.551 266.923 143.048V75.0252C266.892 70.6908 265.806 66.4292 263.758 62.6092C261.71 58.7891 258.762 55.5256 255.169 53.1011V53.1011ZM155.719 183.395C151.855 183.382 148.101 182.116 145.019 179.785C141.937 177.455 139.695 174.188 138.63 170.474L134.045 154.469H148.883L157.219 183.395H155.719ZM249 142.881C249.009 144.324 248.664 145.747 247.995 147.026C247.327 148.305 246.355 149.4 245.166 150.217C240.831 153.218 236.329 150.967 232.078 149.3C210.572 140.962 187.704 136.694 164.639 136.713H106.702C104.337 136.713 102.068 135.773 100.395 134.1C98.7226 132.427 97.7828 130.159 97.7828 127.793V90.1136C97.8048 87.7624 98.7542 85.515 100.425 83.8602C102.095 82.2055 104.351 81.2772 106.702 81.2773H164.639C181.099 81.3615 197.498 79.2591 213.405 75.0252V115.956C213.619 118.162 214.647 120.209 216.288 121.699C217.929 123.189 220.066 124.014 222.283 124.014C224.5 124.014 226.637 123.189 228.278 121.699C229.919 120.209 230.947 118.162 231.161 115.956V68.9398L236.913 66.689C238.263 66.1761 239.718 65.9987 241.151 66.1721C242.585 66.3455 243.956 66.8645 245.145 67.6845C246.334 68.5045 247.306 69.6009 247.977 70.8796C248.649 72.1582 249 73.5809 249 75.0252V142.881Z" fill="#32D5EB"/>
<path d="M204.485 186.729C202.12 186.729 199.851 187.669 198.178 189.342C196.505 191.015 195.566 193.283 195.566 195.649V222.325C195.566 229.4 192.755 236.185 187.753 241.187C182.75 246.19 175.965 249 168.89 249H44.4316C37.3568 249 30.5717 246.19 25.5691 241.187C20.5664 236.185 17.756 229.4 17.756 222.325V44.4316C17.756 37.3568 20.5664 30.5717 25.5691 25.5691C30.5717 20.5664 37.3568 17.756 44.4316 17.756H168.973C173.596 17.824 178.122 19.0884 182.11 21.4259C186.098 23.7633 189.413 27.0942 191.731 31.0938C192.282 32.1712 193.047 33.1252 193.978 33.8978C194.909 34.6703 195.988 35.2453 197.149 35.5877C198.31 35.9301 199.528 36.0327 200.729 35.8893C201.931 35.7459 203.091 35.3596 204.138 34.7537C205.186 34.1478 206.099 33.3351 206.823 32.3651C207.546 31.3951 208.065 30.288 208.347 29.1112C208.629 27.9344 208.668 26.7125 208.463 25.5199C208.258 24.3273 207.812 23.189 207.153 22.1741C203.261 15.4823 197.694 9.9189 191 6.03099C184.305 2.14308 176.715 0.06461 168.973 0L44.4316 0C32.6476 0 21.3463 4.68117 13.0137 13.0137C4.68117 21.3463 0 32.6476 0 44.4316L0 222.325C0 234.109 4.68117 245.41 13.0137 253.743C21.3463 262.075 32.6476 266.756 44.4316 266.756H168.973C180.751 266.734 192.039 262.046 200.367 253.718C208.695 245.39 213.383 234.102 213.405 222.325V195.649C213.405 193.283 212.465 191.015 210.793 189.342C209.12 187.669 206.851 186.729 204.485 186.729V186.729Z" fill="white"/>
<path d="M124.458 231.161C125.697 231.281 126.946 231.141 128.127 230.749C129.308 230.358 130.394 229.724 131.315 228.888C132.236 228.052 132.972 227.032 133.475 225.895C133.979 224.757 134.239 223.527 134.239 222.283C134.239 221.039 133.979 219.809 133.475 218.671C132.972 217.534 132.236 216.514 131.315 215.678C130.394 214.842 129.308 214.208 128.127 213.817C126.946 213.425 125.697 213.285 124.458 213.405H88.9465C87.7083 213.285 86.4587 213.425 85.278 213.817C84.0972 214.208 83.0114 214.842 82.0903 215.678C81.1692 216.514 80.4331 217.534 79.9294 218.671C79.4257 219.809 79.1655 221.039 79.1655 222.283C79.1655 223.527 79.4257 224.757 79.9294 225.895C80.4331 227.032 81.1692 228.052 82.0903 228.888C83.0114 229.724 84.0972 230.358 85.278 230.749C86.4587 231.141 87.7083 231.281 88.9465 231.161H124.458Z" fill="#32D5EB"/>
<path d="M44.4317 35.5952C42.2255 35.8092 40.178 36.837 38.6883 38.4783C37.1986 40.1195 36.3733 42.2567 36.3733 44.4732C36.3733 46.6897 37.1986 48.8269 38.6883 50.4681C40.178 52.1094 42.2255 53.1372 44.4317 53.3512H62.271C64.4772 53.1372 66.5246 52.1094 68.0144 50.4681C69.5041 48.8269 70.3294 46.6897 70.3294 44.4732C70.3294 42.2567 69.5041 40.1195 68.0144 38.4783C66.5246 36.837 64.4772 35.8092 62.271 35.5952H44.4317Z" fill="#32D5EB"/>
</g>
<defs>
<clipPath id="clip0_28_374">
<rect width="266.756" height="266.756" fill="white"/>
</clipPath>
</defs>
</svg>
