<svg width="267" height="267" viewBox="0 0 267 267" fill="none" xmlns="http://www.w3.org/2000/svg">
<g clip-path="url(#clip0_28_360)">
<path d="M124.459 111.121C124.459 105.218 122.114 99.5564 117.94 95.3824C113.765 91.2083 108.104 88.8633 102.201 88.8633H93.3649C92.182 88.8633 91.0477 88.3934 90.2113 87.557C89.3749 86.7207 88.905 85.5863 88.905 84.4035C88.905 83.2206 89.3749 82.0863 90.2113 81.2499C91.0477 80.4135 92.182 79.9436 93.3649 79.9436H113.788C115.027 80.0637 116.276 79.9235 117.457 79.532C118.638 79.1405 119.723 78.5064 120.645 77.6703C121.566 76.8342 122.302 75.8147 122.805 74.6773C123.309 73.5398 123.569 72.3096 123.569 71.0656C123.569 69.8217 123.309 68.5914 122.805 67.454C122.302 66.3166 121.566 65.2971 120.645 64.461C119.723 63.6249 118.638 62.9908 117.457 62.5992C116.276 62.2077 115.027 62.0675 113.788 62.1877H106.703V58.353C106.823 57.1149 106.683 55.8653 106.291 54.6845C105.9 53.5038 105.265 52.4179 104.429 51.4968C103.593 50.5757 102.574 49.8397 101.436 49.336C100.299 48.8323 99.0687 48.5721 97.8247 48.5721C96.5807 48.5721 95.3505 48.8323 94.2131 49.336C93.0756 49.8397 92.0561 50.5757 91.22 51.4968C90.384 52.4179 89.7498 53.5038 89.3583 54.6845C88.9668 55.8653 88.8266 57.1149 88.9467 58.353V62.3544C83.597 63.5061 78.8592 66.5883 75.6381 71.0122C72.417 75.436 70.9386 80.8914 71.4851 86.3363C72.0317 91.7812 74.5649 96.8339 78.601 100.529C82.637 104.225 87.893 106.304 93.3649 106.369H102.285C103.467 106.369 104.602 106.839 105.438 107.675C106.274 108.512 106.744 109.646 106.744 110.829C106.744 112.012 106.274 113.146 105.438 113.983C104.602 114.819 103.467 115.289 102.285 115.289H81.7776C80.5395 115.169 79.2899 115.309 78.1091 115.7C76.9284 116.092 75.8425 116.726 74.9214 117.562C74.0003 118.398 73.2643 119.418 72.7606 120.555C72.2569 121.693 71.9967 122.923 71.9967 124.167C71.9967 125.411 72.2569 126.641 72.7606 127.778C73.2643 128.916 74.0003 129.935 74.9214 130.771C75.8425 131.608 76.9284 132.242 78.1091 132.633C79.2899 133.025 80.5395 133.165 81.7776 133.045H88.8634V136.546C89.0774 138.752 90.1052 140.8 91.7464 142.289C93.3877 143.779 95.5248 144.604 97.7413 144.604C99.9579 144.604 102.095 143.779 103.736 142.289C105.378 140.8 106.405 138.752 106.619 136.546V132.545C111.588 131.539 116.065 128.867 119.309 124.972C122.553 121.076 124.369 116.19 124.459 111.121V111.121Z" fill="#32D5EB"/>
<path d="M233.412 143.882L209.237 137.713V114.705C209.237 107.852 206.514 101.279 201.668 96.4322C196.822 91.5859 190.249 88.8633 183.395 88.8633C176.541 88.8633 169.968 91.5859 165.122 96.4322C160.276 101.279 157.553 107.852 157.553 114.705V161.721L142.798 156.803C139.257 155.61 135.483 155.279 131.789 155.836C128.094 156.394 124.586 157.824 121.554 160.008C118.523 162.192 116.056 165.067 114.357 168.395C112.659 171.723 111.778 175.407 111.788 179.144C111.789 181.188 112.221 183.209 113.053 185.076C113.886 186.943 115.102 188.614 116.623 189.981L157.553 226.743V249C157.585 253.723 159.471 258.243 162.805 261.588C166.061 264.841 170.457 266.695 175.059 266.756H248.75C251.1 266.778 253.431 266.336 255.609 265.455C257.787 264.573 259.77 263.27 261.443 261.62C263.116 259.97 264.447 258.006 265.359 255.84C266.271 253.675 266.746 251.35 266.756 249V186.98C266.772 177.113 263.504 167.522 257.466 159.719C251.429 151.916 242.966 146.344 233.412 143.882V143.882ZM249 248.917H175.059V222.742C175.057 221.501 174.797 220.275 174.294 219.141C173.792 218.007 173.059 216.991 172.141 216.156L129.544 177.81C129.85 176.433 130.651 175.217 131.794 174.392C132.531 173.86 133.383 173.508 134.28 173.363C135.177 173.218 136.096 173.285 136.963 173.558L163.388 182.395C164.715 182.825 166.124 182.938 167.502 182.725C168.881 182.512 170.19 181.979 171.325 181.168C172.46 180.358 173.389 179.292 174.037 178.058C174.686 176.823 175.036 175.453 175.059 174.059V114.705C175.539 112.939 176.587 111.38 178.04 110.269C179.494 109.157 181.273 108.555 183.103 108.555C184.933 108.555 186.712 109.157 188.166 110.269C189.62 111.38 190.668 112.939 191.148 114.705V144.549C191.212 146.472 191.895 148.322 193.097 149.825C194.299 151.327 195.955 152.4 197.817 152.885L228.66 160.804C234.404 162.267 239.497 165.602 243.135 170.282C246.773 174.961 248.749 180.719 248.75 186.646L249 248.917Z" fill="white"/>
<path d="M89.7802 177.476C75.7687 176.06 62.3789 170.972 50.9633 162.725C39.5476 154.478 30.5104 143.365 24.7642 130.508C19.0181 117.651 16.7666 103.505 18.2371 89.4987C19.7076 75.4928 24.8481 62.123 33.1393 50.7395C41.4305 39.3561 52.5789 30.3621 65.4584 24.6661C78.338 18.9701 92.4926 16.7737 106.493 18.2987C120.493 19.8237 133.842 25.0162 145.193 33.3517C156.545 41.6872 165.495 52.8705 171.141 65.7721C172.08 67.983 173.86 69.7301 176.088 70.629C177.191 71.0741 178.371 71.2976 179.56 71.2867C180.749 71.2757 181.925 71.0307 183.02 70.5654C184.115 70.1002 185.107 69.4238 185.94 68.5751C186.774 67.7263 187.432 66.7217 187.877 65.6186C188.322 64.5156 188.545 63.3356 188.534 62.1462C188.523 60.9568 188.278 59.7811 187.813 58.6864C180.919 42.9385 169.995 29.2863 156.143 19.1063C142.29 8.9262 125.999 2.57803 108.91 0.701713C91.8222 -1.17461 74.5413 1.48724 58.8099 8.41892C43.0785 15.3506 29.4524 26.3071 19.3055 40.1839C9.15856 54.0607 2.84933 70.3674 1.01384 87.46C-0.821657 104.553 1.88146 121.827 8.8507 137.542C15.8199 153.257 26.809 166.856 40.71 176.97C54.611 187.084 70.9327 193.354 88.0296 195.149C89.2192 195.251 90.4173 195.116 91.5542 194.751C92.6911 194.386 93.744 193.799 94.6516 193.023C95.5593 192.247 96.3036 191.299 96.8411 190.232C97.3787 189.166 97.6988 188.004 97.7829 186.813C97.9016 184.527 97.1371 182.283 95.6475 180.545C94.1579 178.807 92.0573 177.709 89.7802 177.476Z" fill="white"/>
</g>
<defs>
<clipPath id="clip0_28_360">
<rect width="266.756" height="266.756" fill="white"/>
</clipPath>
</defs>
</svg>
