<svg width="267" height="267" viewBox="0 0 267 267" fill="none" xmlns="http://www.w3.org/2000/svg">
<g clip-path="url(#clip0_28_379)">
<path d="M97.783 97.7829H80.027C75.3131 97.7749 70.7876 99.633 67.4394 102.951C65.7738 104.597 64.4519 106.557 63.5503 108.718C62.6487 110.879 62.1856 113.197 62.1877 115.539V160.054C62.0676 161.292 62.2078 162.542 62.5993 163.722C62.9908 164.903 63.6249 165.989 64.461 166.91C65.2971 167.831 66.3166 168.567 67.454 169.071C68.5915 169.575 69.8217 169.835 71.0657 169.835C72.3096 169.835 73.5399 169.575 74.6773 169.071C75.8147 168.567 76.8342 167.831 77.6703 166.91C78.5064 165.989 79.1406 164.903 79.5321 163.722C79.9236 162.542 80.0638 161.292 79.9436 160.054V151.134H97.6996V160.054C97.9136 162.26 98.9414 164.307 100.583 165.797C102.224 167.287 104.361 168.112 106.578 168.112C108.794 168.112 110.931 167.287 112.573 165.797C114.214 164.307 115.242 162.26 115.456 160.054V115.622C115.473 113.286 115.025 110.97 114.138 108.808C113.251 106.647 111.941 104.684 110.287 103.035C106.968 99.7137 102.478 97.828 97.783 97.7829V97.7829ZM80.027 133.378V115.622H97.783V133.378H80.027Z" fill="#32D5EB"/>
<path d="M151.134 97.7828H133.378C131.013 97.7828 128.744 98.7226 127.071 100.395C125.398 102.068 124.458 104.337 124.458 106.703V160.054C124.458 162.419 125.398 164.688 127.071 166.361C128.744 168.034 131.013 168.973 133.378 168.973H151.134C158.209 168.973 164.994 166.163 169.997 161.16C174.999 156.158 177.81 149.373 177.81 142.298V124.458C177.81 117.384 174.999 110.599 169.997 105.596C164.994 100.593 158.209 97.7828 151.134 97.7828V97.7828ZM160.054 142.214C160.054 144.58 159.114 146.849 157.441 148.522C155.769 150.194 153.5 151.134 151.134 151.134H142.298V115.622H151.217C153.583 115.622 155.852 116.562 157.525 118.235C159.197 119.907 160.137 122.176 160.137 124.542L160.054 142.214Z" fill="#32D5EB"/>
<path d="M200.067 213.405C197.702 213.405 195.433 214.345 193.76 216.017C192.087 217.69 191.148 219.959 191.148 222.325C191.148 229.399 188.337 236.184 183.334 241.187C178.332 246.19 171.547 249 164.472 249H44.4316C37.3568 249 30.5717 246.19 25.5691 241.187C20.5664 236.184 17.756 229.399 17.756 222.325V44.4315C17.7862 37.3649 20.6019 30.5954 25.5919 25.5918C28.0589 23.1059 30.994 21.1335 34.2276 19.7886C37.4613 18.4436 40.9294 17.7527 44.4316 17.7558H164.472C167.988 17.7417 171.472 18.4272 174.721 19.7725C177.97 21.1178 180.918 23.0959 183.395 25.5918C188.385 30.5954 191.201 37.3649 191.231 44.4315C191.445 46.6376 192.473 48.6851 194.114 50.1748C195.755 51.6646 197.892 52.4898 200.109 52.4898C202.325 52.4898 204.463 51.6646 206.104 50.1748C207.745 48.6851 208.773 46.6376 208.987 44.4315C208.933 32.6409 204.23 21.3476 195.899 13.0042C191.78 8.86783 186.881 5.58884 181.487 3.35675C176.093 1.12465 170.31 -0.0162876 164.472 -0.000136062H44.4316C38.5938 -0.0162876 32.8107 1.12465 27.4165 3.35675C22.0223 5.58884 17.1239 8.86783 13.0044 13.0042C4.70379 21.3611 0.0313714 32.6528 0 44.4315L0 222.325C0 234.109 4.68117 245.41 13.0137 253.742C21.3463 262.075 32.6476 266.756 44.4316 266.756H164.472C176.256 266.756 187.557 262.075 195.89 253.742C204.222 245.41 208.904 234.109 208.904 222.325C208.904 219.973 207.975 217.717 206.321 216.047C204.666 214.376 202.418 213.427 200.067 213.405V213.405Z" fill="white"/>
<path d="M124.459 231.161C125.697 231.281 126.946 231.141 128.127 230.749C129.308 230.358 130.394 229.724 131.315 228.888C132.236 228.052 132.972 227.032 133.476 225.895C133.979 224.757 134.24 223.527 134.24 222.283C134.24 221.039 133.979 219.809 133.476 218.671C132.972 217.534 132.236 216.514 131.315 215.678C130.394 214.842 129.308 214.208 128.127 213.817C126.946 213.425 125.697 213.285 124.459 213.405H88.9467C87.7086 213.285 86.459 213.425 85.2782 213.817C84.0974 214.208 83.0116 214.842 82.0905 215.678C81.1694 216.514 80.4334 217.534 79.9297 218.671C79.426 219.809 79.1658 221.039 79.1658 222.283C79.1658 223.527 79.426 224.757 79.9297 225.895C80.4334 227.032 81.1694 228.052 82.0905 228.888C83.0116 229.724 84.0974 230.358 85.2782 230.749C86.459 231.141 87.7086 231.281 88.9467 231.161H124.459Z" fill="#32D5EB"/>
<path d="M44.4317 35.5953C42.2255 35.8094 40.178 36.8372 38.6883 38.4784C37.1986 40.1197 36.3733 42.2568 36.3733 44.4733C36.3733 46.6899 37.1986 48.827 38.6883 50.4682C40.178 52.1095 42.2255 53.1373 44.4317 53.3513H62.271C64.4772 53.1373 66.5246 52.1095 68.0144 50.4682C69.5041 48.827 70.3294 46.6899 70.3294 44.4733C70.3294 42.2568 69.5041 40.1197 68.0144 38.4784C66.5246 36.8372 64.4772 35.8094 62.271 35.5953H44.4317Z" fill="#32D5EB"/>
<path d="M258.92 78.9432C253.917 73.9532 247.147 71.1375 240.081 71.1072H62.2709C55.2043 71.1375 48.4348 73.9532 43.4312 78.9432C40.949 81.4129 38.9791 84.3485 37.6344 87.5816C36.2897 90.8146 35.5967 94.2813 35.5952 97.7829V168.89C35.5921 172.392 36.283 175.86 37.628 179.094C38.9729 182.328 40.9453 185.263 43.4312 187.73C48.4348 192.72 55.2043 195.535 62.2709 195.566H240.081C247.147 195.535 253.917 192.72 258.92 187.73C261.396 185.273 263.363 182.351 264.708 179.133C266.052 175.914 266.748 172.462 266.756 168.973V97.7829C266.755 94.2813 266.062 90.8146 264.717 87.5816C263.372 84.3485 261.402 81.4129 258.92 78.9432V78.9432ZM248.917 168.973C248.917 171.339 247.977 173.608 246.304 175.281C244.632 176.953 242.363 177.893 239.997 177.893H62.2709C59.9052 177.893 57.6365 176.953 55.9637 175.281C54.2909 173.608 53.3512 171.339 53.3512 168.973V97.7829C53.3512 95.4172 54.2909 93.1485 55.9637 91.4757C57.6365 89.803 59.9052 88.8632 62.2709 88.8632H240.081C242.446 88.8632 244.715 89.803 246.388 91.4757C248.061 93.1485 249 95.4172 249 97.7829L248.917 168.973Z" fill="white"/>
<path d="M231.161 115.622C232.399 115.742 233.649 115.602 234.83 115.211C236.01 114.819 237.096 114.185 238.017 113.349C238.938 112.513 239.674 111.493 240.178 110.356C240.682 109.218 240.942 107.988 240.942 106.744C240.942 105.5 240.682 104.27 240.178 103.133C239.674 101.995 238.938 100.976 238.017 100.14C237.096 99.3035 236.01 98.6694 234.83 98.2779C233.649 97.8863 232.399 97.7461 231.161 97.8663H204.485C199.783 97.8882 195.279 99.7659 191.954 103.091C188.629 106.416 186.751 110.92 186.729 115.622V124.542C186.751 129.244 188.629 133.748 191.954 137.073C195.279 140.398 199.783 142.276 204.485 142.298H222.241V151.218H195.566C193.36 151.432 191.312 152.459 189.822 154.101C188.333 155.742 187.507 157.879 187.507 160.096C187.507 162.312 188.333 164.449 189.822 166.09C191.312 167.732 193.36 168.759 195.566 168.973H222.241C226.944 168.952 231.447 167.074 234.773 163.749C238.098 160.424 239.975 155.92 239.997 151.218V142.298C239.975 137.595 238.098 133.092 234.773 129.767C231.447 126.442 226.944 124.564 222.241 124.542H204.485V115.622H231.161Z" fill="#32D5EB"/>
</g>
<defs>
<clipPath id="clip0_28_379">
<rect width="266.756" height="266.756" fill="white"/>
</clipPath>
</defs>
</svg>
