<svg width="171" height="38" viewBox="0 0 171 38" fill="none" xmlns="http://www.w3.org/2000/svg">
<path d="M2.78015 3.71884C2.07258 3.28798 1.1497 3.51229 0.718839 4.21985C0.287977 4.92742 0.512289 5.8503 1.21985 6.28116L2.78015 3.71884ZM170.965 5.32425C171.144 4.51541 170.633 3.71454 169.824 3.53546L156.643 0.61724C155.835 0.438164 155.034 0.948688 154.855 1.75753C154.676 2.56637 155.186 3.36723 155.995 3.54631L167.711 6.14029L165.117 17.8566C164.938 18.6654 165.449 19.4663 166.258 19.6454C167.066 19.8244 167.867 19.3139 168.046 18.5051L170.965 5.32425ZM1.21985 6.28116C34.2364 26.3861 60.1896 36.8919 86.1378 37.0451C112.099 37.1983 137.797 26.9884 170.306 6.26486L168.694 3.73514C136.369 24.3413 111.263 34.1933 86.1555 34.0451C61.0353 33.8969 35.6556 23.7379 2.78015 3.71884L1.21985 6.28116Z" fill="white"/>
</svg>
