<svg width="109" height="109" viewBox="0 0 109 109" fill="none" xmlns="http://www.w3.org/2000/svg">
<rect width="109" height="109" rx="20" fill="white"/>
<g clip-path="url(#clip0_37_254)">
<path d="M78.2415 24H30.7599C25.9226 24 22.001 27.7404 22.001 32.3546V77.6451C22.001 82.2593 25.9224 85.9997 30.7599 85.9997H54.1776L54.2175 63.8444H48.183C47.3988 63.8444 46.7623 63.2395 46.7593 62.4915L46.7303 55.3499C46.7273 54.5978 47.3657 53.9866 48.1542 53.9866H54.1777V47.086C54.1777 39.0779 59.3052 34.7175 66.7946 34.7175H72.9402C73.7265 34.7175 74.3641 35.3255 74.3641 36.0756V42.0975C74.3641 42.8473 73.7269 43.4552 72.941 43.4557L69.1695 43.4573C65.0965 43.4573 64.3079 45.3034 64.3079 48.0127V53.9867H73.2576C74.1103 53.9867 74.7719 54.697 74.6714 55.5048L73.784 62.6463C73.6991 63.3298 73.0916 63.8447 72.3701 63.8447H64.3478L64.3079 86H78.2418C83.0791 86 87.0005 82.2596 87.0005 77.6455V32.3546C87.0003 27.7404 83.0789 24 78.2415 24Z" fill="#475993"/>
</g>
<defs>
<clipPath id="clip0_37_254">
<rect width="65" height="62" fill="white" transform="translate(22 24)"/>
</clipPath>
</defs>
</svg>
