<svg width="109" height="109" viewBox="0 0 109 109" fill="none" xmlns="http://www.w3.org/2000/svg">
<rect width="109" height="109" rx="20" fill="white"/>
<path d="M44.0368 22.2696C37.1426 24.6612 31.1971 29.2006 27.0735 35.2211C22.9499 41.2415 20.8657 48.4256 21.1268 55.7182C21.388 63.0108 23.9809 70.0274 28.5246 75.7374C33.0683 81.4474 39.3233 85.5499 46.3709 87.4422C52.0846 88.9165 58.0708 88.9813 63.815 87.6309C69.0186 86.462 73.8296 83.9618 77.7767 80.3751C81.8848 76.5281 84.8666 71.6341 86.4017 66.2193C88.0696 60.3309 88.3665 54.1386 87.2696 48.1176H55.1846V61.4271H73.7661C73.3947 63.5498 72.5989 65.5758 71.4263 67.3839C70.2536 69.1919 68.7283 70.7448 66.9415 71.9496C64.6728 73.451 62.1149 74.461 59.4324 74.9144C56.7422 75.4148 53.9828 75.4148 51.2926 74.9144C48.5657 74.3513 45.9862 73.2258 43.7187 71.6099C40.0755 69.031 37.3399 65.3672 35.9023 61.1414C34.4409 56.8363 34.4409 52.1693 35.9023 47.8642C36.9256 44.8467 38.6172 42.0992 40.8509 39.8268C43.4071 37.1787 46.6433 35.2857 50.2045 34.3557C53.7657 33.4258 57.5142 33.4946 61.0388 34.5548C63.7923 35.3996 66.3103 36.8764 68.3916 38.8673C70.4868 36.7829 72.5783 34.6932 74.6663 32.598C75.7444 31.4714 76.9196 30.3986 77.9815 29.245C74.8039 26.2884 71.0743 23.9876 67.0062 22.4744C59.5979 19.7844 51.4919 19.7121 44.0368 22.2696V22.2696Z" fill="white"/>
<path d="M44.0368 22.2695C51.4913 19.7103 59.5973 19.7807 67.0062 22.4689C71.075 23.9924 74.803 26.3043 77.9762 29.2719C76.898 30.4255 75.7606 31.5036 74.6609 32.6249C72.5694 34.7129 70.4796 36.7936 68.3916 38.8672C66.3103 36.8764 63.7923 35.3996 61.0388 34.5547C57.5154 33.4908 53.767 33.418 50.2048 34.3442C46.6427 35.2704 43.4045 37.1598 40.8455 39.8052C38.6118 42.0775 36.9202 44.825 35.8969 47.8426L24.7222 39.1907C28.7221 31.2587 35.6476 25.1913 44.0368 22.2695V22.2695Z" fill="#E33629"/>
<path d="M21.7573 47.7618C22.3575 44.7849 23.3547 41.9021 24.7221 39.1907L35.8969 47.8642C34.4354 52.1692 34.4354 56.8362 35.8969 61.1413C32.1738 64.0163 28.4489 66.9057 24.7221 69.8094C21.2999 62.9974 20.2562 55.2359 21.7573 47.7618V47.7618Z" fill="#F8BD00"/>
<path d="M55.1845 48.1121H87.2695C88.3665 54.1331 88.0696 60.3253 86.4016 66.2138C84.8666 71.6285 81.8847 76.5225 77.7766 80.3696C74.1703 77.5557 70.5478 74.7633 66.9415 71.9494C68.7294 70.7434 70.2555 69.1888 71.4282 67.3789C72.6008 65.5689 73.396 63.5408 73.766 61.4161H55.1845C55.1791 56.985 55.1845 52.5485 55.1845 48.1121V48.1121Z" fill="#587DBD"/>
<path d="M24.7168 69.8095C28.4435 66.9345 32.1684 64.0451 35.8916 61.1414C37.332 65.3687 40.0715 69.0327 43.7188 71.61C45.9933 73.2183 48.5784 74.3346 51.3088 74.8875C53.999 75.3878 56.7584 75.3878 59.4486 74.8875C62.1311 74.434 64.689 73.4241 66.9577 71.9226C70.5641 74.7365 74.1866 77.5289 77.7929 80.3428C73.8464 83.9314 69.0354 86.4335 63.8312 87.6039C58.087 88.9543 52.1008 88.8896 46.3871 87.4153C41.8682 86.2087 37.6472 84.0817 33.9887 81.1675C30.1167 78.0928 26.9541 74.2186 24.7168 69.8095V69.8095Z" fill="#319F43"/>
</svg>
