<svg width="109" height="109" viewBox="0 0 109 109" fill="none" xmlns="http://www.w3.org/2000/svg">
<rect width="109" height="109" rx="20" fill="white"/>
<g clip-path="url(#clip0_37_177)">
<path d="M67.6361 23H41.3639C30.6866 23 22 31.5529 22 42.0659V67.9341C22 78.4471 30.6866 87 41.3639 87H67.6361C78.3134 87 87 78.4471 87 67.9341V42.0659C86.9999 31.5529 78.3133 23 67.6361 23ZM80.461 67.9341C80.461 74.908 74.7191 80.5616 67.6361 80.5616H41.3639C34.2809 80.5616 28.539 74.908 28.539 67.9341V42.0659C28.539 35.0919 34.2809 29.4384 41.3639 29.4384H67.6361C74.7191 29.4384 80.461 35.0919 80.461 42.0659V67.9341Z" fill="url(#paint0_linear_37_177)"/>
<path d="M54.4998 38.4473C45.23 38.4473 37.6885 45.8728 37.6885 54.9998C37.6885 64.1269 45.23 71.5525 54.4998 71.5525C63.7696 71.5525 71.3111 64.127 71.3111 54.9998C71.3111 45.8727 63.7696 38.4473 54.4998 38.4473ZM54.4998 65.1142C48.8265 65.1142 44.2275 60.5859 44.2275 54.9999C44.2275 49.4139 48.8266 44.8857 54.4998 44.8857C60.1731 44.8857 64.7721 49.4139 64.7721 54.9999C64.7721 60.5858 60.173 65.1142 54.4998 65.1142Z" fill="url(#paint1_linear_37_177)"/>
<path d="M71.3438 42.5379C73.5686 42.5379 75.3721 40.7621 75.3721 38.5716C75.3721 36.381 73.5686 34.6052 71.3438 34.6052C69.119 34.6052 67.3154 36.381 67.3154 38.5716C67.3154 40.7621 69.119 42.5379 71.3438 42.5379Z" fill="url(#paint2_linear_37_177)"/>
</g>
<defs>
<linearGradient id="paint0_linear_37_177" x1="54.5" y1="86.8137" x2="54.5" y2="23.4971" gradientUnits="userSpaceOnUse">
<stop stop-color="#E09B3D"/>
<stop offset="0.3" stop-color="#C74C4D"/>
<stop offset="0.6" stop-color="#C21975"/>
<stop offset="1" stop-color="#7024C4"/>
</linearGradient>
<linearGradient id="paint1_linear_37_177" x1="54.4998" y1="86.8136" x2="54.4998" y2="23.497" gradientUnits="userSpaceOnUse">
<stop stop-color="#E09B3D"/>
<stop offset="0.3" stop-color="#C74C4D"/>
<stop offset="0.6" stop-color="#C21975"/>
<stop offset="1" stop-color="#7024C4"/>
</linearGradient>
<linearGradient id="paint2_linear_37_177" x1="71.3438" y1="86.8137" x2="71.3438" y2="23.4971" gradientUnits="userSpaceOnUse">
<stop stop-color="#E09B3D"/>
<stop offset="0.3" stop-color="#C74C4D"/>
<stop offset="0.6" stop-color="#C21975"/>
<stop offset="1" stop-color="#7024C4"/>
</linearGradient>
<clipPath id="clip0_37_177">
<rect width="65" height="64" fill="white" transform="translate(22 23)"/>
</clipPath>
</defs>
</svg>
