<svg width="109" height="109" viewBox="0 0 109 109" fill="none" xmlns="http://www.w3.org/2000/svg">
<rect width="109" height="109" rx="20" fill="white"/>
<g clip-path="url(#clip0_37_279)">
<path d="M81.4079 23.8091H26.8719C24.2679 23.8091 22.1479 25.8751 22.1479 28.4191V83.1871C22.1479 85.7371 24.2679 87.8071 26.8719 87.8071H81.4119C84.0219 87.8071 86.1479 85.7371 86.1479 83.1871V28.4191C86.1479 25.8751 84.0219 23.8091 81.4079 23.8091Z" fill="#0177B5"/>
<path d="M31.6379 47.8011H41.1479V78.3411H31.6379V47.8011ZM36.3859 32.6011C39.4199 32.6011 41.8859 35.0671 41.8859 38.1011C41.8859 41.1351 39.4199 43.6071 36.3879 43.6071C34.9284 43.6039 33.5296 43.0229 32.4973 41.991C31.4651 40.9592 30.8836 39.5606 30.8799 38.1011C30.8799 37.3783 31.0223 36.6626 31.2991 35.9949C31.5759 35.3273 31.9816 34.7207 32.4929 34.2099C33.0043 33.6991 33.6113 33.2941 34.2793 33.018C34.9473 32.742 35.6631 32.6003 36.3859 32.6011ZM47.0859 47.8011H56.1899V51.9751H56.3159C57.5839 49.5751 60.6799 47.0431 65.3159 47.0431C74.9279 47.0431 76.7019 53.3691 76.7019 61.5911V78.3431H67.2159V63.4871C67.2159 59.9471 67.1519 55.3871 62.2839 55.3871C57.3439 55.3871 56.5839 59.2471 56.5839 63.2271V78.3351H47.0999V47.7951L47.0859 47.8011Z" fill="white"/>
</g>
<defs>
<clipPath id="clip0_37_279">
<rect width="64" height="64" fill="white" transform="translate(22.1479 23.8071)"/>
</clipPath>
</defs>
</svg>
