<svg width="436" height="99" viewBox="0 0 436 99" fill="none" xmlns="http://www.w3.org/2000/svg">
<circle cx="48.9123" cy="49.5703" r="48.9123" fill="url(#paint0_radial_62_12)"/>
<path d="M98.2661 81.3563C98.5562 78.7572 100.116 76.8635 101.965 76.8635C103.706 76.8635 104.975 78.1631 104.975 79.9825C104.975 81.839 103.597 83.25 102.074 84.5867L91.4119 93.6836V98.1021H111.394V92.3469H102.038L107.768 87.52C110.379 85.2922 112.047 82.7302 112.047 79.3884C112.011 74.3015 107.659 70.5885 102.074 70.5885C96.4528 70.5885 91.9921 74.5615 91.4481 80.0196L98.2661 81.3563Z" fill="#119EB1"/>
<path d="M135.49 64.3038C148.006 64.3038 156.506 56.2204 156.506 44.3302C156.506 32.4399 148.006 24.3565 135.49 24.3565C122.974 24.3565 114.525 32.4399 114.525 44.3302C114.525 56.2204 122.974 64.3038 135.49 64.3038ZM135.49 33.9522C141.278 33.9522 145.19 38.1764 145.19 44.3302C145.19 50.4839 141.278 54.7081 135.49 54.7081C129.753 54.6559 125.842 50.4839 125.842 44.3302C125.842 38.1764 129.753 33.9522 135.49 33.9522ZM170.631 63L175.011 54.6559L179.392 63H191.647L182.625 49.0237L191.23 36.0904H179.288L175.011 43.6L170.735 36.0904H158.845L167.397 49.0237L158.427 63H170.631ZM196.853 74.3166C198.418 74.8903 200.765 75.3075 202.642 75.3075C207.805 75.3075 211.142 71.8656 213.906 64.2516L224.128 36.0904H213.802L209.109 50.849L202.903 36.0904H192.003L205.302 63.4694C204.259 66.5984 202.694 67.6935 199.722 67.6935C198.887 67.6935 197.531 67.5371 196.853 67.2763V74.3166ZM254.336 54.7081C248.861 54.7081 245.002 50.4839 245.002 44.3302C245.002 38.1764 248.808 33.9522 254.389 33.9522C258.404 33.9522 261.898 36.7683 262.68 40.6275L273.163 39.5323C272.224 30.7189 264.193 24.3565 254.024 24.3565C242.238 24.3565 233.685 32.7528 233.685 44.3302C233.685 55.9075 242.238 64.3038 254.076 64.3038C264.401 64.3038 272.433 57.9936 273.267 49.3366L262.733 48.1371C261.846 51.9441 258.352 54.7081 254.336 54.7081ZM291.359 35.0474C282.232 35.0474 276.079 40.8882 276.079 49.5452C276.079 58.2022 282.232 64.043 291.359 64.043C300.433 64.043 306.587 58.2022 306.587 49.5452C306.587 40.8882 300.433 35.0474 291.359 35.0474ZM291.359 55.2817C288.282 55.2817 286.144 52.935 286.144 49.5452C286.144 46.1554 288.282 43.8086 291.359 43.8086C294.436 43.8086 296.574 46.1554 296.574 49.5452C296.574 52.935 294.436 55.2817 291.359 55.2817ZM310.407 36.0904V63H320.472V48.1893C320.472 45.5818 322.141 43.8086 324.331 43.8086C326.521 43.8086 327.877 45.5296 327.877 48.0328V63H337.942V45.7382C337.942 39.5323 334.031 35.0474 328.503 35.0474C324.957 35.0474 322.036 36.9769 320.107 39.9495V36.0904H310.407ZM367.764 54.0301C367.764 47.5635 360.619 46.4683 354.83 45.8947C353.057 45.5818 350.345 45.2167 350.345 43.6C350.345 42.2963 351.858 41.3054 353.839 41.3054C356.29 41.3054 358.116 42.557 358.168 44.2259L366.668 44.278C366.668 38.8022 361.245 34.8388 353.787 34.8388C346.747 34.8388 341.532 38.8544 341.532 44.4345C341.532 51.1619 346.695 52.257 352.483 52.7264C356.186 52.9871 358.168 53.6129 358.168 55.2817C358.168 56.6898 356.551 57.785 354.309 57.785C351.493 57.785 349.459 56.2726 349.459 54.1866H341.375C341.323 60.0274 346.695 64.2516 354.1 64.2516C362.236 64.2516 367.764 59.9753 367.764 54.0301ZM398.282 63V36.0904H388.217V50.849C388.217 53.4565 386.548 55.2817 384.358 55.2817C382.167 55.2817 380.811 53.5086 380.811 51.0054V36.0904H370.746V53.3C370.746 59.5581 374.658 64.043 380.186 64.043C383.732 64.043 386.652 62.1134 388.634 59.1409V63H398.282ZM403.175 24.0958V63H413.188V24.0958H403.175ZM419.898 53.1436C419.898 59.4538 423.757 64.043 429.598 64.043C431.475 64.043 433.822 63.678 435.648 63.1043V55.021C434.813 55.2296 433.822 55.3339 433.092 55.3339C431.163 55.3339 429.911 53.978 429.911 51.9441V43.5479H435.543V36.0904H429.911V29.0501H421.306L420.315 36.0904H416.456V43.5479H419.898V53.1436Z" fill="white"/>
<defs>
<radialGradient id="paint0_radial_62_12" cx="0" cy="0" r="1" gradientUnits="userSpaceOnUse" gradientTransform="translate(27.1735 24.2084) rotate(52.8451) scale(99.7046)">
<stop stop-color="#35DBF2"/>
<stop offset="0.604593" stop-color="#088C9E"/>
<stop offset="0.989583" stop-color="#03272C"/>
</radialGradient>
</defs>
</svg>
