<svg width="1033" height="237" viewBox="0 0 1033 237" fill="none" xmlns="http://www.w3.org/2000/svg">
<circle cx="116.907" cy="118.48" r="116.907" fill="url(#paint0_radial_202_6)"/>
<path d="M234.869 194.453C235.562 188.24 239.29 183.714 243.71 183.714C247.871 183.714 250.905 186.82 250.905 191.169C250.905 195.606 247.611 198.979 243.97 202.174L218.486 223.917V234.477H266.247V220.722H243.884L257.579 209.185C263.82 203.86 267.807 197.736 267.807 189.749C267.721 177.591 257.319 168.716 243.97 168.716C230.535 168.716 219.873 178.212 218.573 191.258L234.869 194.453Z" fill="#119EB1"/>
<path d="M337.471 155.089C367.387 155.089 387.704 135.769 387.704 107.35C387.704 78.9303 367.387 59.6101 337.471 59.6101C307.556 59.6101 287.363 78.9303 287.363 107.35C287.363 135.769 307.556 155.089 337.471 155.089ZM337.471 82.545C351.307 82.545 360.656 92.6414 360.656 107.35C360.656 122.058 351.307 132.154 337.471 132.154C323.76 132.03 314.412 122.058 314.412 107.35C314.412 92.6414 323.76 82.545 337.471 82.545ZM421.463 151.973L431.933 132.03L442.403 151.973H471.695L450.131 118.568L470.698 87.6556H442.154L431.933 105.605L421.712 87.6556H393.293L413.735 118.568L392.295 151.973H421.463ZM484.138 179.021C487.878 180.393 493.487 181.39 497.974 181.39C510.314 181.39 518.292 173.163 524.898 154.965L549.329 87.6556H524.649L513.43 122.931L498.597 87.6556H472.546L504.331 153.095C501.838 160.574 498.099 163.191 490.994 163.191C489 163.191 485.759 162.817 484.138 162.194V179.021ZM591.898 151.973H628.794C659.457 151.973 679.899 134.149 679.899 107.35C679.899 80.5507 659.457 62.7263 628.794 62.7263H591.898V151.973ZM652.85 107.35C652.85 122.183 643.128 131.78 628.794 131.78H618.074V82.919H628.794C643.128 82.919 652.85 92.5168 652.85 107.35ZM690.675 87.6556V151.973H714.731V87.6556H690.675ZM702.765 81.0493C710.494 81.0493 716.103 75.6895 716.103 68.0861C716.103 60.6073 710.494 55.2475 702.765 55.2475C695.037 55.2475 689.304 60.6073 689.304 68.0861C689.304 75.6895 695.037 81.0493 702.765 81.0493ZM761.736 133.276C754.382 133.276 749.271 127.542 749.271 119.814C749.271 111.837 754.382 106.103 761.736 106.103C768.965 106.103 774.201 111.837 774.201 119.814C774.201 127.542 768.965 133.276 761.736 133.276ZM760.863 164.936C754.88 164.936 749.77 160.823 748.648 155.089L727.707 157.333C729.203 172.291 743.537 183.135 761.861 183.135C782.926 183.135 797.135 170.919 797.135 151.599V87.6556H773.203V94.3865C768.591 88.5281 761.985 85.1626 753.883 85.1626C737.305 85.1626 725.214 99.2477 725.214 119.814C725.214 139.135 737.305 152.347 753.883 152.347C761.985 152.347 768.467 149.231 773.203 143.746V150.727C773.203 159.452 768.093 164.936 760.863 164.936ZM810.214 87.6556V151.973H834.27V87.6556H810.214ZM822.304 81.0493C830.032 81.0493 835.642 75.6895 835.642 68.0861C835.642 60.6073 830.032 55.2475 822.304 55.2475C814.576 55.2475 808.843 60.6073 808.843 68.0861C808.843 75.6895 814.576 81.0493 822.304 81.0493ZM851.734 128.415C851.734 143.497 860.957 154.466 874.918 154.466C879.405 154.466 885.014 153.594 889.377 152.222V132.902C887.382 133.401 885.014 133.65 883.269 133.65C878.657 133.65 875.666 130.409 875.666 125.548V105.48H889.127V87.6556H875.666V70.8283H855.099L852.731 87.6556H843.507V105.48H851.734V128.415ZM932.341 133.525C924.987 133.525 919.876 127.667 919.876 119.814C919.876 111.837 924.987 106.103 932.341 106.103C939.57 106.103 944.805 111.837 944.805 119.814C944.805 127.667 939.57 133.525 932.341 133.525ZM944.93 95.8822C940.318 89.1513 933.463 85.1626 925.111 85.1626C907.661 85.1626 895.819 99.2477 895.819 119.814C895.819 140.381 907.661 154.466 925.111 154.466C933.463 154.466 940.318 150.477 944.93 143.746V151.973H968.862V87.6556H944.93V95.8822ZM980.665 58.9869V151.973H1004.6V58.9869H980.665Z" fill="white"/>
<defs>
<radialGradient id="paint0_radial_202_6" cx="0" cy="0" r="1" gradientUnits="userSpaceOnUse" gradientTransform="translate(64.9483 57.8613) rotate(52.8451) scale(238.307)">
<stop stop-color="#35DBF2"/>
<stop offset="0.604593" stop-color="#088C9E"/>
<stop offset="0.989583" stop-color="#03272C"/>
</radialGradient>
</defs>
</svg>
