<svg width="109" height="109" viewBox="0 0 109 109" fill="none" xmlns="http://www.w3.org/2000/svg">
<rect width="109" height="109" rx="20" fill="white"/>
<path d="M46.1798 50.6101V47.8185C45.1335 47.6815 44.0795 47.6106 43.024 47.6062C30.1163 47.6062 19.6128 57.3374 19.6128 69.2984C19.6128 76.6344 23.5713 83.1306 29.6077 87.0569C25.5657 83.0517 23.317 77.7728 23.3208 72.2892C23.3208 60.4991 33.5244 50.8844 46.1798 50.6101Z" fill="#00F2EA"/>
<path d="M46.8004 81.421C52.258 81.421 56.708 77.1509 56.9111 71.8269L56.93 24.3133H65.7541C65.5652 23.3216 65.4693 22.3148 65.4676 21.3057H53.4175L53.3966 68.8212C53.1955 74.1414 48.7417 78.4115 43.286 78.4115C41.6492 78.4115 40.0368 78.0183 38.5874 77.2655C39.5266 78.552 40.7609 79.5995 42.1886 80.3219C43.6164 81.0443 45.197 81.421 46.8004 81.421ZM82.2333 40.4411V37.7998C78.9938 37.8034 75.823 36.876 73.1056 35.1303C75.4906 37.8289 78.6931 39.6918 82.2352 40.4411" fill="#00F2EA"/>
<path d="M72.747 35.8048C70.0972 32.8414 68.6339 29.0207 68.6329 25.063H65.4126C65.8341 27.2528 66.7017 29.3346 67.9627 31.1814C69.2237 33.0283 70.8516 34.6014 72.747 35.8048M43.0014 59C37.4224 59.0075 32.9022 63.4353 32.8965 68.9002C32.9023 70.7118 33.4104 72.4871 34.3654 74.0324C35.3205 75.5778 36.6857 76.8339 38.3124 77.6639C37.0711 75.9898 36.4011 73.9676 36.3995 71.8909C36.4052 66.4242 40.9254 61.9945 46.5045 61.9888C47.5482 61.9888 48.5445 62.1579 49.4876 62.4472V50.4241C48.4992 50.2866 47.5026 50.215 46.5045 50.21C46.3299 50.21 46.1572 50.2212 45.9845 50.2231V59.4583C45.0192 59.1574 44.0135 59.0029 43.0014 59" fill="#FF004F"/>
<path d="M80.6278 41.9702V51.1453C74.6334 51.1541 68.7861 49.3078 63.9039 45.8646V69.8487C63.9039 81.8285 53.9792 91.5747 41.7811 91.5747C37.0655 91.5747 32.6933 90.1132 29.1011 87.6353C31.1749 89.827 33.6814 91.5736 36.4652 92.7667C39.249 93.9597 42.2507 94.5739 45.2842 94.5711C57.4842 94.5711 67.4088 84.8249 67.4088 72.8469V48.8609C72.2913 52.3035 78.1386 54.1492 84.1328 54.1398V42.3365C82.9548 42.3362 81.78 42.2134 80.6278 41.9702" fill="#FF004F"/>
<path d="M65.1166 69.0599V45.0363C70.1408 48.4938 76.1164 50.3404 82.2352 50.3264V41.1401C78.6372 40.4029 75.3713 38.5467 72.914 35.8424C68.9821 33.3871 66.2684 29.4927 65.4069 25.063H56.3988L56.3798 72.432C56.1711 77.7371 51.6262 81.9941 46.0566 81.9941C42.7281 81.9903 39.6084 80.4499 37.669 77.8536C34.2646 76.1385 32.1298 72.7513 32.1279 69.058C32.1336 63.5725 36.7581 59.1296 42.4701 59.1221C43.5327 59.1221 44.5537 59.2911 45.5215 59.5823V50.3152C33.2798 50.5913 23.4082 60.2342 23.4082 72.0581C23.4082 77.7785 25.7214 82.9841 29.4902 86.8709C33.3171 89.449 37.8411 90.8233 42.4701 90.8141C54.9566 90.8141 65.1166 81.0548 65.1166 69.0599Z" fill="black"/>
</svg>
