<svg width="109" height="109" viewBox="0 0 109 109" fill="none" xmlns="http://www.w3.org/2000/svg">
<rect width="109" height="109" rx="20" fill="white"/>
<circle cx="54.0001" cy="55.9269" r="20.3902" fill="white"/>
<path d="M76.2158 28.1104H31.7842C23.0668 28.1104 16 35.1772 16 43.8946V66.1057C16 74.823 23.0668 81.8899 31.7842 81.8899H76.2158C84.9332 81.8899 92 74.823 92 66.1057V43.8946C92 35.1772 84.9332 28.1104 76.2158 28.1104ZM65.541 56.0808L44.7589 65.9926C44.2052 66.2567 43.5655 65.8529 43.5655 65.2395V44.7964C43.5655 44.1742 44.222 43.7709 44.7769 44.0522L65.559 54.5835C66.1769 54.8966 66.1662 55.7827 65.541 56.0808Z" fill="#F61C0D"/>
</svg>
